HIERARCHY
ROOT Hips
{
  OFFSET 63.5465 96.0804 -22.47
  CHANNELS 6 Xposition Yposition Zposition Zrotation Xrotation Yrotation
  JOINT RightUpLeg
  {
    OFFSET -8.9458 -8.66707 0.101652
    CHANNELS 3 Zrotation Xrotation Yrotation
    JOINT RightLeg
    {
      OFFSET 0 -44.4227 1.3727
      CHANNELS 3 Zrotation Xrotation Yrotation
      JOINT RightFoot
      {
        OFFSET 0.253549 -42.0924 -1.46059
        CHANNELS 3 Zrotation Xrotation Yrotation
        JOINT RightToes
        {
          OFFSET 0.04 -4.41509 8.4991
          CHANNELS 3 Zrotation Xrotation Yrotation
          End Site
          {
            OFFSET -0.08 -0.137448 9.77979
          }
        }
      }
    }
  }
  JOINT Spine
  {
    OFFSET 0 11.8905 0
    CHANNELS 3 Zrotation Xrotation Yrotation
    JOINT Spine1
    {
      OFFSET 0 25.6574 0.127663
      CHANNELS 3 Zrotation Xrotation Yrotation
      JOINT HEad
      {
        OFFSET 0 8.73416 0.011341
        CHANNELS 3 Zrotation Xrotation Yrotation
        End Site
        {
          OFFSET -0.29 12.7742 2.51395
        }
      }
      JOINT LeftShoulder1
      {
        OFFSET 8.99 -0.362252 -0.22
        CHANNELS 3 Zrotation Xrotation Yrotation
        JOINT LeftArm
        {
          OFFSET 10.2827 -0.00338 0.322123
          CHANNELS 3 Zrotation Xrotation Yrotation
          JOINT LeftForeArm
          {
            OFFSET 32.7669 0.099144 -1.42434
            CHANNELS 3 Zrotation Xrotation Yrotation
            JOINT LeftHand
            {
              OFFSET 27.5643 0.085362 1.02216
              CHANNELS 3 Zrotation Xrotation Yrotation
              End Site
              {
                OFFSET 16.7443 -0.6 1.50291
              }
            }
          }
        }
      }
      JOINT RightShoulder
      {
        OFFSET -8.99 -0.362252 -0.22
        CHANNELS 3 Zrotation Xrotation Yrotation
        JOINT RightArm
        {
          OFFSET -10.2827 -0.00338 0.322123
          CHANNELS 3 Zrotation Xrotation Yrotation
          JOINT RightForeArm
          {
            OFFSET -32.8971 0.099144 -1.42434
            CHANNELS 3 Zrotation Xrotation Yrotation
            JOINT RightHand
            {
              OFFSET -27.4921 0.085362 1.02216
              CHANNELS 3 Zrotation Xrotation Yrotation
              End Site
              {
                OFFSET -16.6312 -0.6 1.50291
              }
            }
          }
        }
      }
    }
  }
  JOINT LeftUpLeg
  {
    OFFSET 8.9458 -8.66707 0.101652
    CHANNELS 3 Zrotation Xrotation Yrotation
    JOINT LeftLeg
    {
      OFFSET 0 -44.4227 1.3727
      CHANNELS 3 Zrotation Xrotation Yrotation
      JOINT LeftFoot
      {
        OFFSET -0.253549 -42.0924 -1.46059
        CHANNELS 3 Zrotation Xrotation Yrotation
        JOINT LeftToes
        {
          OFFSET -0.04 -4.41509 8.4991
          CHANNELS 3 Zrotation Xrotation Yrotation
          End Site
          {
            OFFSET 0.08 -0.047448 9.77979
          }
        }
      }
    }
  }
}
MOTION
Frames:	6
Frame Time:	0.0166667
89.4202 98.2423 -20.4034 3.64509 5.0554 -179.036 -12.0501 -4.26491 8.27896 7.09139 30.5562 -15.0016 4.10963 -0.815038 -0.119733 0.0462048 0.000533403 0.662642 5.34189 6.23538 -7.88645 1.58332e-007 -1.83875e-007 0.00653 -16.6942 9.49939 42.1878 2.98177e-016 -1.98785e-016 7.95139e-016 -143.975 -85.2145 -124.215 8.70854 62.4693 -122.378 -13.9919 41.0083 53.6094 9.47668 6.36441 -2.54278 87.8008 -2.97309 76.5918 23.7934 52.6484 79.2799 0.0770615 20.739 4.50082 35.5952 -14.9563 -10.6293 -18.2072 13.6245 41.0909 -3.08551 -4.72872 -0.369893 -1.29886e-009 1.55997e-007 -4.87031e-009 
85.7774 95.7403 -20.4727 3.86935 5.14898 -179.417 -14.564 -9.39747 8.45396 11.6607 39.1693 -20.2865 4.55945 -3.21061 -0.0170185 0.0462048 0.000533403 0.662642 5.51621 7.21278 -9.18633 1.58332e-007 -1.83875e-007 0.00653 -16.8702 8.28899 43.5631 -1.98785e-016 0 -0 -79.2065 -83.0821 -66.9977 9.64671 57.0994 -105.171 -0.520183 36.3866 40.7946 9.13648 5.91504 -2.285 87.8794 -2.45698 76.4103 23.5429 52.8659 80.1111 -0.0292411 20.6473 4.48675 37.694 -21.3157 -8.62668 -29.0959 24.5985 46.5902 -2.60927 -12.3918 -2.78565 -1.29887e-009 1.55997e-007 -4.8703e-009 
81.9159 93.0406 -20.4041 4.09089 5.29743 -179.904 -17.4771 -14.6916 7.52626 15.8684 46.8038 -23.6335 6.89331 -4.26083 0.415237 0.0462048 0.000533403 0.662642 5.61544 8.17664 -10.3128 1.58332e-007 -1.83875e-007 0.00653 -16.9891 7.20666 44.8648 -1.98785e-016 -7.95139e-016 1.59028e-015 -52.1268 -76.8147 -47.718 9.66343 52.4025 -85.6908 5.62586 32.2583 29.2868 8.7979 5.57052 -2.00219 88.1135 -2.07245 76.3152 23.3411 53.078 80.9257 0.0429854 20.6314 4.24635 37.9502 -26.5257 -5.78204 -36.3776 33.9714 51.521 -2.9606 -17.705 -4.65233 -1.29887e-009 1.55997e-007 -4.8703e-009 
77.9005 90.1693 -20.194 4.28281 5.47715 179.527 -20.8031 -20.1991 5.29449 19.3212 54.1574 -25.0931 8.96401 -4.48614 1.0127 0.0462048 0.000533403 0.662642 5.62933 9.10893 -11.2711 1.58332e-007 -1.83875e-007 0.00653 -17.0875 6.25053 46.0791 9.93923e-017 3.97569e-016 1.59028e-015 -40.64 -69.2053 -44.3454 7.52291 48.6687 -63.5328 -5.68016 21.3852 32.4329 8.448 5.31707 -1.65962 88.5032 -1.79208 76.3089 23.1797 53.2748 81.6539 0.0711443 20.4769 4.19228 37.3557 -31.3417 -2.03311 -41.9121 42.985 55.7864 -3.43571 -21.6805 -5.80316 -1.29887e-009 1.55997e-007 -4.87029e-009 
73.788 87.1496 -19.8542 4.41882 5.66045 178.891 -24.8861 -25.8155 1.55603 21.663 61.3958 -24.5312 11.6022 -3.92476 1.83447 0.0462048 0.000533403 0.662642 5.54421 9.99137 -12.0605 1.58332e-007 -1.83875e-007 0.00653 -17.195 5.40622 47.1911 1.98785e-016 7.95139e-016 -1.59028e-015 -34.6361 -61.182 -46.892 1.95412 44.5019 -37.9695 14.2108 21.2692 10.2437 8.08081 5.11763 -1.22158 89.0355 -1.60048 76.3619 23.0281 53.4453 82.2391 0.246036 20.3867 3.94192 36.4021 -36.0457 2.64312 -46.6007 51.9549 59.7193 -3.64329 -24.6487 -6.211 -1.29886e-009 1.55997e-007 -4.8703e-009 
69.6287 84.0682 -19.4778 4.48712 5.83642 178.2 -29.6155 -30.6694 -2.70332 23.2772 67.6167 -23.0215 14.0604 -2.86941 2.78218 0.0462048 0.000533403 0.662642 5.35457 10.8176 -12.6758 1.58332e-007 -1.83875e-007 0.00653 -17.3314 4.66269 48.1815 -1.98785e-016 -1.59028e-015 1.59028e-015 -31.388 -53.2033 -52.4617 -3.98643 35.4429 -13.3246 -7.59386 11.9887 12.3508 7.72008 4.93821 -0.664205 89.6634 -1.50187 76.4328 22.8516 53.5721 82.668 0.406205 20.2365 3.78969 35.4653 -40.17 7.22143 -52.1821 59.8765 65.001 -3.59906 -27.119 -6.22679 -1.29886e-009 1.55997e-007 -4.87029e-009 
